# generated soda can
v 0.00000 0.00000 0.00000
v 0.00000 0.00000 0.11500
v 0.03300 0.00000 0.00000
v 0.03300 0.00000 0.11500
v 0.03272 0.00431 0.00000
v 0.03272 0.00431 0.11500
v 0.03188 0.00854 0.00000
v 0.03188 0.00854 0.11500
v 0.03049 0.01263 0.00000
v 0.03049 0.01263 0.11500
v 0.02858 0.01650 0.00000
v 0.02858 0.01650 0.11500
v 0.02618 0.02009 0.00000
v 0.02618 0.02009 0.11500
v 0.02333 0.02333 0.00000
v 0.02333 0.02333 0.11500
v 0.02009 0.02618 0.00000
v 0.02009 0.02618 0.11500
v 0.01650 0.02858 0.00000
v 0.01650 0.02858 0.11500
v 0.01263 0.03049 0.00000
v 0.01263 0.03049 0.11500
v 0.00854 0.03188 0.00000
v 0.00854 0.03188 0.11500
v 0.00431 0.03272 0.00000
v 0.00431 0.03272 0.11500
v 0.00000 0.03300 0.00000
v 0.00000 0.03300 0.11500
v -0.00431 0.03272 0.00000
v -0.00431 0.03272 0.11500
v -0.00854 0.03188 0.00000
v -0.00854 0.03188 0.11500
v -0.01263 0.03049 0.00000
v -0.01263 0.03049 0.11500
v -0.01650 0.02858 0.00000
v -0.01650 0.02858 0.11500
v -0.02009 0.02618 0.00000
v -0.02009 0.02618 0.11500
v -0.02333 0.02333 0.00000
v -0.02333 0.02333 0.11500
v -0.02618 0.02009 0.00000
v -0.02618 0.02009 0.11500
v -0.02858 0.01650 0.00000
v -0.02858 0.01650 0.11500
v -0.03049 0.01263 0.00000
v -0.03049 0.01263 0.11500
v -0.03188 0.00854 0.00000
v -0.03188 0.00854 0.11500
v -0.03272 0.00431 0.00000
v -0.03272 0.00431 0.11500
v -0.03300 0.00000 0.00000
v -0.03300 0.00000 0.11500
v -0.03272 -0.00431 0.00000
v -0.03272 -0.00431 0.11500
v -0.03188 -0.00854 0.00000
v -0.03188 -0.00854 0.11500
v -0.03049 -0.01263 0.00000
v -0.03049 -0.01263 0.11500
v -0.02858 -0.01650 0.00000
v -0.02858 -0.01650 0.11500
v -0.02618 -0.02009 0.00000
v -0.02618 -0.02009 0.11500
v -0.02333 -0.02333 0.00000
v -0.02333 -0.02333 0.11500
v -0.02009 -0.02618 0.00000
v -0.02009 -0.02618 0.11500
v -0.01650 -0.02858 0.00000
v -0.01650 -0.02858 0.11500
v -0.01263 -0.03049 0.00000
v -0.01263 -0.03049 0.11500
v -0.00854 -0.03188 0.00000
v -0.00854 -0.03188 0.11500
v -0.00431 -0.03272 0.00000
v -0.00431 -0.03272 0.11500
v -0.00000 -0.03300 0.00000
v -0.00000 -0.03300 0.11500
v 0.00431 -0.03272 0.00000
v 0.00431 -0.03272 0.11500
v 0.00854 -0.03188 0.00000
v 0.00854 -0.03188 0.11500
v 0.01263 -0.03049 0.00000
v 0.01263 -0.03049 0.11500
v 0.01650 -0.02858 0.00000
v 0.01650 -0.02858 0.11500
v 0.02009 -0.02618 0.00000
v 0.02009 -0.02618 0.11500
v 0.02333 -0.02333 0.00000
v 0.02333 -0.02333 0.11500
v 0.02618 -0.02009 0.00000
v 0.02618 -0.02009 0.11500
v 0.02858 -0.01650 0.00000
v 0.02858 -0.01650 0.11500
v 0.03049 -0.01263 0.00000
v 0.03049 -0.01263 0.11500
v 0.03188 -0.00854 0.00000
v 0.03188 -0.00854 0.11500
v 0.03272 -0.00431 0.00000
v 0.03272 -0.00431 0.11500
v 0.03300 -0.00000 0.00000
v 0.03300 -0.00000 0.11500
vt 0.50000 0.99500
vt 0.50000 0.00500
vt 0.00000 0.07000
vt 0.00000 0.93000
vt 0.02083 0.07000
vt 0.02083 0.93000
vt 0.04167 0.07000
vt 0.04167 0.93000
vt 0.06250 0.07000
vt 0.06250 0.93000
vt 0.08333 0.07000
vt 0.08333 0.93000
vt 0.10417 0.07000
vt 0.10417 0.93000
vt 0.12500 0.07000
vt 0.12500 0.93000
vt 0.14583 0.07000
vt 0.14583 0.93000
vt 0.16667 0.07000
vt 0.16667 0.93000
vt 0.18750 0.07000
vt 0.18750 0.93000
vt 0.20833 0.07000
vt 0.20833 0.93000
vt 0.22917 0.07000
vt 0.22917 0.93000
vt 0.25000 0.07000
vt 0.25000 0.93000
vt 0.27083 0.07000
vt 0.27083 0.93000
vt 0.29167 0.07000
vt 0.29167 0.93000
vt 0.31250 0.07000
vt 0.31250 0.93000
vt 0.33333 0.07000
vt 0.33333 0.93000
vt 0.35417 0.07000
vt 0.35417 0.93000
vt 0.37500 0.07000
vt 0.37500 0.93000
vt 0.39583 0.07000
vt 0.39583 0.93000
vt 0.41667 0.07000
vt 0.41667 0.93000
vt 0.43750 0.07000
vt 0.43750 0.93000
vt 0.45833 0.07000
vt 0.45833 0.93000
vt 0.47917 0.07000
vt 0.47917 0.93000
vt 0.50000 0.07000
vt 0.50000 0.93000
vt 0.52083 0.07000
vt 0.52083 0.93000
vt 0.54167 0.07000
vt 0.54167 0.93000
vt 0.56250 0.07000
vt 0.56250 0.93000
vt 0.58333 0.07000
vt 0.58333 0.93000
vt 0.60417 0.07000
vt 0.60417 0.93000
vt 0.62500 0.07000
vt 0.62500 0.93000
vt 0.64583 0.07000
vt 0.64583 0.93000
vt 0.66667 0.07000
vt 0.66667 0.93000
vt 0.68750 0.07000
vt 0.68750 0.93000
vt 0.70833 0.07000
vt 0.70833 0.93000
vt 0.72917 0.07000
vt 0.72917 0.93000
vt 0.75000 0.07000
vt 0.75000 0.93000
vt 0.77083 0.07000
vt 0.77083 0.93000
vt 0.79167 0.07000
vt 0.79167 0.93000
vt 0.81250 0.07000
vt 0.81250 0.93000
vt 0.83333 0.07000
vt 0.83333 0.93000
vt 0.85417 0.07000
vt 0.85417 0.93000
vt 0.87500 0.07000
vt 0.87500 0.93000
vt 0.89583 0.07000
vt 0.89583 0.93000
vt 0.91667 0.07000
vt 0.91667 0.93000
vt 0.93750 0.07000
vt 0.93750 0.93000
vt 0.95833 0.07000
vt 0.95833 0.93000
vt 0.97917 0.07000
vt 0.97917 0.93000
vt 1.00000 0.07000
vt 1.00000 0.93000
vn 0.00000 0.00000 1.00000
vn 0.00000 0.00000 -1.00000
vn 1.00000 0.00000 0.00000
vn 0.99144 0.13053 0.00000
vn 0.96593 0.25882 0.00000
vn 0.92388 0.38268 0.00000
vn 0.86603 0.50000 0.00000
vn 0.79335 0.60876 0.00000
vn 0.70711 0.70711 0.00000
vn 0.60876 0.79335 0.00000
vn 0.50000 0.86603 0.00000
vn 0.38268 0.92388 0.00000
vn 0.25882 0.96593 0.00000
vn 0.13053 0.99144 0.00000
vn 0.00000 1.00000 0.00000
vn -0.13053 0.99144 0.00000
vn -0.25882 0.96593 0.00000
vn -0.38268 0.92388 0.00000
vn -0.50000 0.86603 0.00000
vn -0.60876 0.79335 0.00000
vn -0.70711 0.70711 0.00000
vn -0.79335 0.60876 0.00000
vn -0.86603 0.50000 0.00000
vn -0.92388 0.38268 0.00000
vn -0.96593 0.25882 0.00000
vn -0.99144 0.13053 0.00000
vn -1.00000 0.00000 0.00000
vn -0.99144 -0.13053 0.00000
vn -0.96593 -0.25882 0.00000
vn -0.92388 -0.38268 0.00000
vn -0.86603 -0.50000 0.00000
vn -0.79335 -0.60876 0.00000
vn -0.70711 -0.70711 0.00000
vn -0.60876 -0.79335 0.00000
vn -0.50000 -0.86603 0.00000
vn -0.38268 -0.92388 0.00000
vn -0.25882 -0.96593 0.00000
vn -0.13053 -0.99144 0.00000
vn -0.00000 -1.00000 0.00000
vn 0.13053 -0.99144 0.00000
vn 0.25882 -0.96593 0.00000
vn 0.38268 -0.92388 0.00000
vn 0.50000 -0.86603 0.00000
vn 0.60876 -0.79335 0.00000
vn 0.70711 -0.70711 0.00000
vn 0.79335 -0.60876 0.00000
vn 0.86603 -0.50000 0.00000
vn 0.92388 -0.38268 0.00000
vn 0.96593 -0.25882 0.00000
vn 0.99144 -0.13053 0.00000
vn 1.00000 -0.00000 0.00000
f 3/3/3 5/5/4 6/6/4
f 3/3/3 6/6/4 4/4/3
f 2/1/1 4/1/1 6/1/1
f 1/2/2 5/2/2 3/2/2
f 5/5/4 7/7/5 8/8/5
f 5/5/4 8/8/5 6/6/4
f 2/1/1 6/1/1 8/1/1
f 1/2/2 7/2/2 5/2/2
f 7/7/5 9/9/6 10/10/6
f 7/7/5 10/10/6 8/8/5
f 2/1/1 8/1/1 10/1/1
f 1/2/2 9/2/2 7/2/2
f 9/9/6 11/11/7 12/12/7
f 9/9/6 12/12/7 10/10/6
f 2/1/1 10/1/1 12/1/1
f 1/2/2 11/2/2 9/2/2
f 11/11/7 13/13/8 14/14/8
f 11/11/7 14/14/8 12/12/7
f 2/1/1 12/1/1 14/1/1
f 1/2/2 13/2/2 11/2/2
f 13/13/8 15/15/9 16/16/9
f 13/13/8 16/16/9 14/14/8
f 2/1/1 14/1/1 16/1/1
f 1/2/2 15/2/2 13/2/2
f 15/15/9 17/17/10 18/18/10
f 15/15/9 18/18/10 16/16/9
f 2/1/1 16/1/1 18/1/1
f 1/2/2 17/2/2 15/2/2
f 17/17/10 19/19/11 20/20/11
f 17/17/10 20/20/11 18/18/10
f 2/1/1 18/1/1 20/1/1
f 1/2/2 19/2/2 17/2/2
f 19/19/11 21/21/12 22/22/12
f 19/19/11 22/22/12 20/20/11
f 2/1/1 20/1/1 22/1/1
f 1/2/2 21/2/2 19/2/2
f 21/21/12 23/23/13 24/24/13
f 21/21/12 24/24/13 22/22/12
f 2/1/1 22/1/1 24/1/1
f 1/2/2 23/2/2 21/2/2
f 23/23/13 25/25/14 26/26/14
f 23/23/13 26/26/14 24/24/13
f 2/1/1 24/1/1 26/1/1
f 1/2/2 25/2/2 23/2/2
f 25/25/14 27/27/15 28/28/15
f 25/25/14 28/28/15 26/26/14
f 2/1/1 26/1/1 28/1/1
f 1/2/2 27/2/2 25/2/2
f 27/27/15 29/29/16 30/30/16
f 27/27/15 30/30/16 28/28/15
f 2/1/1 28/1/1 30/1/1
f 1/2/2 29/2/2 27/2/2
f 29/29/16 31/31/17 32/32/17
f 29/29/16 32/32/17 30/30/16
f 2/1/1 30/1/1 32/1/1
f 1/2/2 31/2/2 29/2/2
f 31/31/17 33/33/18 34/34/18
f 31/31/17 34/34/18 32/32/17
f 2/1/1 32/1/1 34/1/1
f 1/2/2 33/2/2 31/2/2
f 33/33/18 35/35/19 36/36/19
f 33/33/18 36/36/19 34/34/18
f 2/1/1 34/1/1 36/1/1
f 1/2/2 35/2/2 33/2/2
f 35/35/19 37/37/20 38/38/20
f 35/35/19 38/38/20 36/36/19
f 2/1/1 36/1/1 38/1/1
f 1/2/2 37/2/2 35/2/2
f 37/37/20 39/39/21 40/40/21
f 37/37/20 40/40/21 38/38/20
f 2/1/1 38/1/1 40/1/1
f 1/2/2 39/2/2 37/2/2
f 39/39/21 41/41/22 42/42/22
f 39/39/21 42/42/22 40/40/21
f 2/1/1 40/1/1 42/1/1
f 1/2/2 41/2/2 39/2/2
f 41/41/22 43/43/23 44/44/23
f 41/41/22 44/44/23 42/42/22
f 2/1/1 42/1/1 44/1/1
f 1/2/2 43/2/2 41/2/2
f 43/43/23 45/45/24 46/46/24
f 43/43/23 46/46/24 44/44/23
f 2/1/1 44/1/1 46/1/1
f 1/2/2 45/2/2 43/2/2
f 45/45/24 47/47/25 48/48/25
f 45/45/24 48/48/25 46/46/24
f 2/1/1 46/1/1 48/1/1
f 1/2/2 47/2/2 45/2/2
f 47/47/25 49/49/26 50/50/26
f 47/47/25 50/50/26 48/48/25
f 2/1/1 48/1/1 50/1/1
f 1/2/2 49/2/2 47/2/2
f 49/49/26 51/51/27 52/52/27
f 49/49/26 52/52/27 50/50/26
f 2/1/1 50/1/1 52/1/1
f 1/2/2 51/2/2 49/2/2
f 51/51/27 53/53/28 54/54/28
f 51/51/27 54/54/28 52/52/27
f 2/1/1 52/1/1 54/1/1
f 1/2/2 53/2/2 51/2/2
f 53/53/28 55/55/29 56/56/29
f 53/53/28 56/56/29 54/54/28
f 2/1/1 54/1/1 56/1/1
f 1/2/2 55/2/2 53/2/2
f 55/55/29 57/57/30 58/58/30
f 55/55/29 58/58/30 56/56/29
f 2/1/1 56/1/1 58/1/1
f 1/2/2 57/2/2 55/2/2
f 57/57/30 59/59/31 60/60/31
f 57/57/30 60/60/31 58/58/30
f 2/1/1 58/1/1 60/1/1
f 1/2/2 59/2/2 57/2/2
f 59/59/31 61/61/32 62/62/32
f 59/59/31 62/62/32 60/60/31
f 2/1/1 60/1/1 62/1/1
f 1/2/2 61/2/2 59/2/2
f 61/61/32 63/63/33 64/64/33
f 61/61/32 64/64/33 62/62/32
f 2/1/1 62/1/1 64/1/1
f 1/2/2 63/2/2 61/2/2
f 63/63/33 65/65/34 66/66/34
f 63/63/33 66/66/34 64/64/33
f 2/1/1 64/1/1 66/1/1
f 1/2/2 65/2/2 63/2/2
f 65/65/34 67/67/35 68/68/35
f 65/65/34 68/68/35 66/66/34
f 2/1/1 66/1/1 68/1/1
f 1/2/2 67/2/2 65/2/2
f 67/67/35 69/69/36 70/70/36
f 67/67/35 70/70/36 68/68/35
f 2/1/1 68/1/1 70/1/1
f 1/2/2 69/2/2 67/2/2
f 69/69/36 71/71/37 72/72/37
f 69/69/36 72/72/37 70/70/36
f 2/1/1 70/1/1 72/1/1
f 1/2/2 71/2/2 69/2/2
f 71/71/37 73/73/38 74/74/38
f 71/71/37 74/74/38 72/72/37
f 2/1/1 72/1/1 74/1/1
f 1/2/2 73/2/2 71/2/2
f 73/73/38 75/75/39 76/76/39
f 73/73/38 76/76/39 74/74/38
f 2/1/1 74/1/1 76/1/1
f 1/2/2 75/2/2 73/2/2
f 75/75/39 77/77/40 78/78/40
f 75/75/39 78/78/40 76/76/39
f 2/1/1 76/1/1 78/1/1
f 1/2/2 77/2/2 75/2/2
f 77/77/40 79/79/41 80/80/41
f 77/77/40 80/80/41 78/78/40
f 2/1/1 78/1/1 80/1/1
f 1/2/2 79/2/2 77/2/2
f 79/79/41 81/81/42 82/82/42
f 79/79/41 82/82/42 80/80/41
f 2/1/1 80/1/1 82/1/1
f 1/2/2 81/2/2 79/2/2
f 81/81/42 83/83/43 84/84/43
f 81/81/42 84/84/43 82/82/42
f 2/1/1 82/1/1 84/1/1
f 1/2/2 83/2/2 81/2/2
f 83/83/43 85/85/44 86/86/44
f 83/83/43 86/86/44 84/84/43
f 2/1/1 84/1/1 86/1/1
f 1/2/2 85/2/2 83/2/2
f 85/85/44 87/87/45 88/88/45
f 85/85/44 88/88/45 86/86/44
f 2/1/1 86/1/1 88/1/1
f 1/2/2 87/2/2 85/2/2
f 87/87/45 89/89/46 90/90/46
f 87/87/45 90/90/46 88/88/45
f 2/1/1 88/1/1 90/1/1
f 1/2/2 89/2/2 87/2/2
f 89/89/46 91/91/47 92/92/47
f 89/89/46 92/92/47 90/90/46
f 2/1/1 90/1/1 92/1/1
f 1/2/2 91/2/2 89/2/2
f 91/91/47 93/93/48 94/94/48
f 91/91/47 94/94/48 92/92/47
f 2/1/1 92/1/1 94/1/1
f 1/2/2 93/2/2 91/2/2
f 93/93/48 95/95/49 96/96/49
f 93/93/48 96/96/49 94/94/48
f 2/1/1 94/1/1 96/1/1
f 1/2/2 95/2/2 93/2/2
f 95/95/49 97/97/50 98/98/50
f 95/95/49 98/98/50 96/96/49
f 2/1/1 96/1/1 98/1/1
f 1/2/2 97/2/2 95/2/2
f 97/97/50 99/99/51 100/100/51
f 97/97/50 100/100/51 98/98/50
f 2/1/1 98/1/1 100/1/1
f 1/2/2 99/2/2 97/2/2
